# xmcd
#
# Track frame offsets: 
#        150
#        13360
#        21760
#        35155
#        46252
#        57374
#        68531
#        77796
#        88586
#        98096
#        110371
#        119406
#        128884
#        137392
#        148890
#        157678
#        170749
#        178929
#        192123
#        202994
#        213952
#        224920
#        234090
#        244698
#        254052
#        265788
#        274643
#        283946
#        292323
#        303872
#        313256
#
# Disc length: 4324 seconds
#
# Revision: 0
# Processed by: cddbd v1.5.2PL0 Copyright (c) Steve Scherf et al.
# Submitted via: ExactAudioCopy v0.95b4
#
DISCID=d710e21f
DTITLE=The Beatles - Please Please Me [CD1] (Stereo-Mono) (Purple C
DTITLE=hick Deluxe Edition)
DYEAR=1900
DGENRE=Acid
TTITLE0=I Saw Her Standing There (Stereo)
TTITLE1=Misery (Stereo)
TTITLE2=Anna (Go To Him) (Stereo)
TTITLE3=Chains (Stereo)
TTITLE4=Boys (Stereo)
TTITLE5=Ask Me Why (Stereo)
TTITLE6=Please Please Me (Stereo)
TTITLE7=Love Me Do (Stereo)
TTITLE8=P.S. I Love You (Stereo)
TTITLE9=Baby It's You (Stereo)
TTITLE10=Do You Want To Know A Secret (Stereo)
TTITLE11=A Taste Of Honey (Stereo)
TTITLE12=There's A Place (Stereo)
TTITLE13=Twist And Shout (Stereo)
TTITLE14=How Do You Do It (Anthology Edit)
TTITLE15=How Do You Do It (Anthology Edit)
TTITLE16=Misery (Mono)
TTITLE17=Anna (Go To Him) (Mono)
TTITLE18=Chains (Mono)
TTITLE19=Boys (Mono)
TTITLE20=Ask Me Why (Mono)
TTITLE21=Please Please Me (Mono)
TTITLE22=Love Me Do (Mono)
TTITLE23=P.S. I Love You (Mono)
TTITLE24=Baby It's You (Mono)
TTITLE25=Do You Want To Know A Secret (Mono)
TTITLE26=A Taste Of Honey (Mono)
TTITLE27=There's A Place (Mono)
TTITLE28=Twist And Shout (Mono)
TTITLE29=Please Please Me (Single Mix)
TTITLE30=Ask Me Why (Single Mix)
EXTD=
EXTT0=
EXTT1=
EXTT2=
EXTT3=
EXTT4=
EXTT5=
EXTT6=
EXTT7=
EXTT8=
EXTT9=
EXTT10=
EXTT11=
EXTT12=
EXTT13=
EXTT14=
EXTT15=
EXTT16=
EXTT17=
EXTT18=
EXTT19=
EXTT20=
EXTT21=
EXTT22=
EXTT23=
EXTT24=
EXTT25=
EXTT26=
EXTT27=
EXTT28=
EXTT29=
EXTT30=
PLAYORDER=
